<svg width="18" height="18" viewBox="0 0 18 18" fill="none" xmlns="http://www.w3.org/2000/svg">
<path d="M16.5423 17.577L10.2615 11.296C9.76151 11.7088 9.18651 12.0319 8.53651 12.2653C7.88651 12.4986 7.21409 12.6153 6.51926 12.6153C4.81009 12.6153 3.36359 12.0235 2.17976 10.84C0.995924 9.6565 0.404007 8.21033 0.404007 6.5015C0.404007 4.79283 0.995757 3.34617 2.17926 2.1615C3.36276 0.977001 4.80892 0.38475 6.51776 0.38475C8.22642 0.38475 9.67309 0.976666 10.8578 2.1605C12.0423 3.34433 12.6345 4.79083 12.6345 6.5C12.6345 7.21417 12.5147 7.89625 12.275 8.54625C12.0352 9.19625 11.7153 9.76158 11.3153 10.2423L17.596 16.523L16.5423 17.577ZM6.51926 11.1155C7.80776 11.1155 8.89909 10.6683 9.79326 9.774C10.6876 8.87983 11.1348 7.7885 11.1348 6.5C11.1348 5.2115 10.6876 4.12017 9.79326 3.226C8.89909 2.33167 7.80776 1.8845 6.51926 1.8845C5.23076 1.8845 4.13942 2.33167 3.24526 3.226C2.35092 4.12017 1.90376 5.2115 1.90376 6.5C1.90376 7.7885 2.35092 8.87983 3.24526 9.774C4.13942 10.6683 5.23076 11.1155 6.51926 11.1155Z" fill="#1C1B1F"/>
</svg>
